<svg width="205" height="59" xmlns="http://www.w3.org/2000/svg" xmlns:xlink="http://www.w3.org/1999/xlink"><use xlink:href="#a" transform="translate(0 12.245)" fill="#B72E2E"/><use xlink:href="#b" transform="translate(9)" fill="#333"/><use xlink:href="#c" transform="translate(57.13 7.792)" fill="#FFF"/><defs><path id="a" fill-rule="evenodd" d="M22.404 44.528c12.374 0 22.405-9.968 22.405-22.264S34.778 0 22.404 0C10.031 0 0 9.968 0 22.264s10.03 22.264 22.404 22.264Z"/><path id="b" d="M16.868 47c-.174-.391-.326-.79-.456-1.196a9.96 9.96 0 0 1-.305-1.26 8.697 8.697 0 0 1-2.76 2.108c-1.073.536-2.306.805-3.697.805-2.305 0-4.138-.624-5.5-1.87-1.349-1.261-2.023-2.972-2.023-5.131 0-2.204.884-3.907 2.653-5.11 1.768-1.203 4.363-1.804 7.783-1.804h3.24v-2.305c0-1.13-.326-2.008-.978-2.631-.653-.623-1.617-.935-2.892-.935-.725 0-1.37.087-1.935.261-.566.16-1.022.355-1.37.587l-.413 2.522H3.432l.021-5.218c1.16-.783 2.486-1.442 3.98-1.979 1.507-.536 3.145-.804 4.913-.804 2.913 0 5.276.717 7.088 2.152 1.826 1.42 2.74 3.45 2.74 6.088v10.741c.014.319.043.623.087.913l1.934.261V47h-7.327Zm-5.5-4.24c.956 0 1.826-.203 2.609-.608.782-.42 1.391-.943 1.826-1.566v-3.587h-3.24c-1.348 0-2.37.318-3.065.956-.696.623-1.044 1.377-1.044 2.261 0 .798.254 1.42.761 1.87.522.45 1.24.674 2.153.674Z"/><path id="c" d="M13.08 37a7.98 7.98 0 0 1-.609-1.965 6.96 6.96 0 0 1-2.209 1.687c-.858.429-1.843.643-2.957.643-1.843 0-3.31-.498-4.4-1.496-1.079-1.008-1.618-2.377-1.618-4.105 0-1.762.708-3.125 2.122-4.087 1.415-.963 3.49-1.444 6.227-1.444h2.592V24.39c0-.904-.261-1.606-.783-2.104-.522-.499-1.293-.748-2.313-.748-.58 0-1.096.07-1.548.209-.453.127-.818.284-1.096.47l-.33 2.017H2.33l.017-4.175c.928-.626 1.989-1.153 3.183-1.582 1.206-.43 2.517-.644 3.931-.644 2.331 0 4.221.574 5.67 1.722 1.462 1.136 2.192 2.76 2.192 4.87v8.593c.012.255.035.498.07.73l1.548.21V37H13.08Zm-4.4-3.392c.765 0 1.46-.162 2.087-.487.626-.336 1.113-.754 1.46-1.252v-2.87h-2.59c-1.08 0-1.897.255-2.453.765-.557.499-.835 1.102-.835 1.81 0 .637.203 1.135.609 1.495.417.36.991.54 1.722.54Zm11.619-12.367V18.18h7.375l.243 2.192c.557-.812 1.223-1.438 2-1.88.777-.44 1.682-.66 2.714-.66 2.33 0 4.14.91 5.427 2.73 1.287 1.821 1.93 4.216 1.93 7.184v.366c0 2.783-.643 5.02-1.93 6.714-1.287 1.693-3.085 2.54-5.392 2.54-.986 0-1.861-.18-2.627-.54a5.479 5.479 0 0 1-1.965-1.618v5.445l2.452.522v3.06H20.56v-3.06l2.452-.522v-18.89l-2.713-.522Zm14.61 6.506c0-1.775-.295-3.213-.887-4.314-.591-1.102-1.495-1.653-2.713-1.653-.765 0-1.42.157-1.966.47a3.37 3.37 0 0 0-1.27 1.34v8.244c.314.533.737.94 1.27 1.218.546.278 1.212.417 2 .417 1.23 0 2.129-.481 2.697-1.444.58-.962.87-2.267.87-3.913v-.365Zm16.35 9.618c-2.713 0-4.881-.87-6.505-2.609-1.623-1.74-2.435-3.948-2.435-6.627v-.696c0-2.794.766-5.096 2.296-6.905 1.542-1.809 3.607-2.708 6.192-2.696 2.54 0 4.511.765 5.914 2.296 1.404 1.53 2.105 3.6 2.105 6.21v2.765H47.59l-.035.104c.093 1.241.504 2.262 1.235 3.062.742.8 1.745 1.2 3.009 1.2 1.125 0 2.058-.11 2.8-.33.743-.232 1.554-.592 2.436-1.079l1.374 3.131c-.777.615-1.786 1.13-3.027 1.548-1.23.418-2.603.626-4.122.626Zm-.452-15.62c-.939 0-1.68.36-2.226 1.079-.545.719-.881 1.664-1.009 2.835l.052.087h6.227v-.452c0-1.079-.255-1.937-.765-2.574-.498-.65-1.258-.974-2.279-.974Zm10.054-.504V18.18h7.375l.244 2.192c.556-.812 1.223-1.438 2-1.88.777-.44 1.681-.66 2.713-.66 2.331 0 4.14.91 5.427 2.73 1.287 1.821 1.931 4.216 1.931 7.184v.366c0 2.783-.644 5.02-1.93 6.714-1.288 1.693-3.085 2.54-5.393 2.54-.985 0-1.861-.18-2.626-.54a5.479 5.479 0 0 1-1.966-1.618v5.445l2.453.522v3.06h-9.967v-3.06l2.453-.522v-18.89l-2.714-.522Zm14.611 6.506c0-1.775-.296-3.213-.887-4.314-.591-1.102-1.496-1.653-2.713-1.653-.766 0-1.421.157-1.966.47a3.37 3.37 0 0 0-1.27 1.34v8.244c.313.533.737.94 1.27 1.218.545.278 1.212.417 2 .417 1.23 0 2.128-.481 2.696-1.444.58-.962.87-2.267.87-3.913v-.365Zm16.35 9.618c-2.713 0-4.882-.87-6.505-2.609-1.623-1.74-2.435-3.948-2.435-6.627v-.696c0-2.794.765-5.096 2.296-6.905 1.542-1.809 3.606-2.708 6.192-2.696 2.54 0 4.51.765 5.914 2.296 1.403 1.53 2.105 3.6 2.105 6.21v2.765H88.152l-.035.104c.093 1.241.505 2.262 1.235 3.062.742.8 1.745 1.2 3.01 1.2 1.124 0 2.058-.11 2.8-.33.742-.232 1.554-.592 2.435-1.079l1.374 3.131c-.777.615-1.786 1.13-3.026 1.548-1.23.418-2.604.626-4.123.626Zm-.452-15.62c-.94 0-1.681.36-2.226 1.079-.545.719-.882 1.664-1.01 2.835l.053.087h6.227v-.452c0-1.079-.255-1.937-.765-2.574-.499-.65-1.259-.974-2.279-.974Zm10.819 12.211 2.435-.522V21.763l-2.696-.522V18.18h7.427l.226 2.748c.441-.974 1.009-1.733 1.705-2.279.696-.544 1.502-.817 2.418-.817.266 0 .545.023.835.07.301.034.55.08.748.139l-.54 4.627-2.087-.053c-.742 0-1.357.145-1.844.435a2.81 2.81 0 0 0-1.113 1.235v9.15l2.435.521V37h-9.949v-3.044Zm14.454 0 2.453-.522V21.763l-2.714-.522V18.18h7.793v15.254l2.435.522V37h-9.967v-3.044Zm7.532-20.281h-5.079v-3.81h5.079v3.81ZM140.264 37a8.035 8.035 0 0 1-.609-1.965 6.956 6.956 0 0 1-2.209 1.687c-.858.429-1.843.643-2.957.643-1.843 0-3.31-.498-4.4-1.496-1.079-1.008-1.618-2.377-1.618-4.105 0-1.762.707-3.125 2.122-4.087 1.415-.963 3.491-1.444 6.227-1.444h2.592V24.39c0-.904-.261-1.606-.783-2.104-.522-.499-1.293-.748-2.313-.748-.58 0-1.096.07-1.548.209-.453.127-.818.284-1.096.47l-.331 2.017h-3.826l.017-4.175c.928-.626 1.989-1.153 3.183-1.582 1.206-.43 2.517-.644 3.931-.644 2.331 0 4.221.574 5.671 1.722 1.461 1.136 2.191 2.76 2.191 4.87v8.593c.012.255.035.498.07.73l1.548.21V37h-5.862Zm-4.4-3.392c.765 0 1.461-.162 2.087-.487.626-.336 1.113-.754 1.461-1.252v-2.87h-2.592c-1.078 0-1.896.255-2.452.765-.557.499-.835 1.102-.835 1.81 0 .637.203 1.135.609 1.495.417.36.991.54 1.722.54Z"/></defs></svg>